<svg xmlns="http://www.w3.org/2000/svg" width="263" height="263" viewBox="0 0 263 263"><defs><style>.a{fill:#ae9173;}.b{fill:#fff;fill-rule:evenodd;}</style></defs><g transform="translate(-73 -153)"><circle class="a" cx="131.5" cy="131.5" r="131.5" transform="translate(73 153)"/><g transform="translate(60 -3044.866)"><g transform="translate(55 3286.866)"><path class="b" d="M257.482,86.192c-.88-3.663-3.747-5.025-5.678-7.552-2.158-2.811-5.082-3.861-8.773-4.344-2.555-.341-1.675-.965-2.868-1.618-1.136-.625-2.413.256-3.748-.085-1.079-.256-1.76-1.221-2.754-1.7-1.192-.568-2.47-.17-3.691-.795a2.616,2.616,0,0,1-1.59-2.839c.057-1.874.88-1.278.142-3.606-.483-1.618.539-2.129,1.249-3.009a11.87,11.87,0,0,0,1.363-2.9c.6-1.476,2.669-4.174,2.584-5.82-1.05-.114-1.391,1.05-1.732,2.1-.539,1.845-3.265,7.012-4.344,7.807a25.846,25.846,0,0,1-2.868-1.788l-2.9,1.788c-.937-.653-2.47-3.861-3.123-5-.937-1.7-1.334-4.685-2.9-5-.2,1.675,2.073,4.571,2.7,6.218a7.559,7.559,0,0,0,1.533,2.9c.937,1.051,1.334,1.306.795,3.01-.738,2.328,1.874,4.827-1.59,6.275-1.221.511-2.357.028-3.691.767-.937.568-1.476,1.42-2.612,1.618-1.391.284-2.754-.681-3.89.227-1.192,1.022-.454,1.136-2.868,1.5-2.612.341-4.628.852-6.417,2.271a8.644,8.644,0,0,0-2.215,2.215,7.714,7.714,0,0,1-2.214,2.072,12.637,12.637,0,0,0-3.322,5.338c-1.476-.369-2.016-.852-3.492.114-.795.568-1.136,1.59-1.931,2.328-1.675,1.391-5.082.227-6.644,2.1-1.05,1.391.738.057-2.271,2.1-1.136.738-1.675.823-2.81,1.448-6.473,3.577-1.192,9.312,3.094,4.685a4.316,4.316,0,0,1,2.726-1.76c1.136-.4,2.073-.625,3.293-.994,2.527-.795,4-.681,5.423-3.208.539-1.051,1.59-1.7,1.931-2.357.6-1.363-.6-2.271.795-3.293.937.483.142.965,2.158.937,2.328-.085,4-1.817,5.678-3.038,2.215-1.647,5.764-2.527,7.3-4.287,3.35-3.918,5.48-5.053,10.618-6.672,2.073-.71,1.874-2.073,3.549-2.3a2.129,2.129,0,0,1,.6,1.363c-3.265,3.01-1.193,3.606-2.073,5.65-.2.341-1.136,1.561-1.533,2.328-1.533,2.782-1.278,5.764-2.47,8.745-.937,2.357-.2,4.2-.795,6.729-.681,2.754-1.022,3.463-.34,6.53,1.618,6.9-1.334,5.252.454,13.032.738,3.236-.114,3.463-.454,6.388-.142,1.391,0,2.584,1.079,2.811a10.862,10.862,0,0,1,1.675.284c.454.2.653.483,1.192.483,1.817-.085,1.618-3.975,1.391-5.849-.2-2.356,0-4.911-.256-7.183s.937-5.338-.653-6.473c-2.1-1.533.6-5.905.312-12.634-.256-5.65-.6-5.054.341-10.562.256-1.306.057-2.129,1.136-2.612,1.079,2.413.539,18.284.539,21.861,0,2.328.142,19.136,3.151,19.136,3.066,0,3.208-17.12,3.208-19.5-.085-3.463-.483-19.391.454-21.492,1.136.511.937,1.476,1.136,2.754.937,4.8.681,5.65.341,10.59-.2,3.89.738,6.388,1.079,9.965.454,3.89-1.817.539-1.476,5.707.2,3.521-.539,12.691-.2,14.423.454,2.924,2.215,1.5,2.868,1.306,1.959-.511,2.81.085,2.47-3.237-.4-3.179-1.192-2.953-.4-6.331.4-1.931.937-4.741.284-6.7-.88-2.527-.341-3.89.114-6.331.681-3.066.34-3.8-.312-6.53-.625-2.442.2-4.287-.88-6.7-1.618-3.464-.738-6.644-3.265-10.05-.284-.369-.625-.625-.738-1.022-.4-1.533.795-3.833-2.158-5.451l.738-1.42c1.817.369,1.42,1.59,3.748,2.328,5.621,1.7,7.1,2.9,10.561,6.728A9.688,9.688,0,0,0,245.9,83.3c3.947,1.618,6.417,5.054,9.511,5.054,1.732,0,1.079-.454,1.931-.937,1.42,1.022.142,2.186.88,3.435.539.852,1.192.994,1.931,2.357,1.278,2.3,3.151,2.442,5.565,3.095,2.811.823,4.2.937,5.877,2.811,1.42,1.533,4.429,2.583,5.877.2,1.221-1.9-1.931-4.486-3.01-5.025-.454-.256-1.05-.426-1.59-.681-.483-.284-.88-.625-1.278-.852-2.555-1.7-.994-.767-2.215-2.044-1.675-1.845-4.883-.625-6.559-2.158-.852-.823-1.05-1.7-1.987-2.215C259.214,85.4,258.959,85.965,257.482,86.192Z" transform="translate(-135.531 -51.839)"/><path class="b" d="M336.73,161.86c-1.789-3.549-.653-1.278-2.47-3.492-1.789-2.186-.4-3.464-2.073-4-.852,1.192.539,2.47.823,3.634.312,1.448-.681,7.268-1.164,8.858-.71,2.868.142,1.9.823,3.719.539,1.562.057,3.35-.085,4.94-.114,2.924.738,0-.795,3.8-1.334,3.407,1.931,4.684-.2,7.864-.681,1.022-1.59,2.158-.795,3.776a1.5,1.5,0,0,0,1.533.909c.88-.142.795-.795,1.476-1.136,1.874-1.107,1.334.625,2.924-2.243.937-1.7,1.675-1.7,2.1-2.924.312-1.051-.142-8.347-.483-9.482-.539-1.987-1.931-6.842.4-7.666,1.136.795,1.079,5.394,1.136,7.212.2,4.2-.454,3.89,1.874,6.473,2.47,2.782-.341,3.946.937,6.388.483.795,1.618,1.987,2.669.937.483-.454.284-.852.738-1.42.284-.426.681-.426.937-.937l-1.931-6.189c-.454-.909-2.754-4.032-2.612-5.253.142-1.533,1.334.312,1.618,1.278.539,2.186,1.249.625,1.789,1.959.341.852,0,4.031,1.959,6.047l.738-2.328c.852-2.583-1.221-4.713-3.038-8.744-.511-1.136-.795-.738-1.136-1.732a12.879,12.879,0,0,0-.6-2.5c-.341-.767-.852-.795-1.59-1.334-1.022-.738-.681-.738-1.278-1.817-.483-.852-.994-.625-1.817-1.05A19.455,19.455,0,0,1,336.73,161.86Z" transform="translate(-231.586 -113.936)"/><path class="b" d="M244.958,168.419c2.527.341.994,6.161.511,7.666-.312,1.079-.795,8.432-.454,9.482a3.386,3.386,0,0,0,1.136,1.59,4.029,4.029,0,0,1,.994,1.42c1.476,2.726,1.136,1.107,2.953,2.158,0,0,1.931,2.584,3.01.085.681-1.533-.2-2.669-.88-3.634-2.186-3.265,1.22-4.287-.255-8.006-1.675-4.117-.483-.994-.8-4.032-.88-8.489,1.987-3.577.738-8.6-.426-1.618-1.476-7.268-1.079-8.659.341-1.136,1.675-2.385.795-3.521-1.079.369-.795.937-1.079,2.073a3.916,3.916,0,0,1-1.051,2.044c-2.016,2.243-.738.085-2.47,3.521-.341.738-1.874,3.179-2.5,3.435-1.136.539-1.249,0-1.789,1.278a2.608,2.608,0,0,1-1.278,1.675c-2.754,1.789-1.136,1.5-2.129,3.833-.341.88-.681.71-1.221,1.874-.255.681-.6,1.363-.852,1.987-1.562,2.868-2.811,4.287-1.959,6.643l.483,1.76c.2.653,0,.17.256.426,1.874-2.016,1.618-5.479,1.959-6.161.653-1.306,1.136.511,1.845-2.158.284-1.079,1.562-2.3,1.562-.795-.085,1.5-2.215,4.117-2.811,5.366l-1.817,6.075c2.073,1.448.8,1.789,1.874,2.357,1.192.653,2.129-.483,2.555-1.221,1.193-2.413-1.675-3.492.994-6.36,2.215-2.5,1.533-2.612,1.732-6.558C244.078,173.586,243.879,169.469,244.958,168.419Z" transform="translate(-173.77 -113.936)"/><path class="b" d="M176.952,117.925a1.644,1.644,0,0,0-.681-1.959c-3.719-3.8-7.609,2.7-8.29,3.265-1.391,1.278-9.142,4.259-10.561,5.82-.88.965-.88,2.5-1.874,3.719-2.129,2.669-.88,1.931-.795,3.8.057,1.136-.795,1.42-.4,2.413a1.649,1.649,0,0,0,1.874.823c3.606-.256,2.726-3.833,5.934-5.224,1.221-.539,2.7-.454,4.145-1.249a9.249,9.249,0,0,0,2.9-2.754C172.664,122.041,175.56,122.609,176.952,117.925Z" transform="translate(-124.843 -89.959)"/><path class="b" d="M405.027,123.681c1.931,1.448,3.407,4.486,5.366,5.622,3.208,1.874,4.8-.227,6.956,4.032,1.533,3.01,4.4,3.01,5.139,1.987.681-.909-.057-1.306-.2-2.129-.4-2.016,1.391-1.76-.681-4.117-1.192-1.363-.994-2.584-1.874-3.719-1.249-1.7-9.284-4.77-10.7-5.905-1.391-1.192-2.669-4.911-6.417-4.514-1.192.142-2.811,1.448-2.669,2.669a8.838,8.838,0,0,0,1.874,3.634C403.1,122.687,403.494,122.545,405.027,123.681Z" transform="translate(-273.65 -90.037)"/><path class="b" d="M234.326,132.125c1.562,3.776-2.924,10.079.085,10.022,2.413-.085,5.082-8.432,6.275-9.71,2.555-2.612,1.675-1.7,3.152-6.3,1.079-3.407,4.344-5.99,4.344-8.489-3.01.142-4.6,3.208-5.536,4.769a10.876,10.876,0,0,1-1.562,1.76c-1.05,1.164-1.448,2.754-3.265,3.464-3.265,1.334-4.145,3.663-5.423,4.628-.937.738-1.533.341-2.47.795-.994.483-2.47,2.385-3.208,3.35-1.136,1.42-1.873,2.47-2.952,3.8-.795.965-2.726,2.3-2.47,4.117.4.795,1.391,1.221,1.334,2.073-.057,1.05-1.334,1.363-.539,2.584,2.016.738,3.889-5.622,5.167-7.439.738-1.107,2.186-2.271,2.612-3.691.312-.909.312-1.732,1.136-2.186.994-.568,1.391.142,2.271-.823a7.389,7.389,0,0,0,.2-1.7C233.616,132.267,233.673,132.324,234.326,132.125Z" transform="translate(-165.438 -91.696)"/><path class="b" d="M327.836,122.217c-.994-1.9-2.612-4.4-5.422-4.571-.057,1.533,1.334,3.293,2.215,4.514,3.208,4.543,2.214,6.388,3.889,8.83.937,1.42,1.59.88,2.726,3.691.6,1.562,3.208,7.637,5.082,7.438,2.754-.312-1.59-6.445-.057-9.994.795.227.795.284.88,1.249.312,3.265.994,1.221,2.612,2.385.653.483.71,1.363,1.05,2.243.539,1.476,1.817,2.356,2.669,3.662,1.079,1.59,3.009,8.063,5.025,7.325.738-1.192-.4-1.5-.539-2.584-.057-.852.937-1.363,1.334-2.073.284-1.817-1.732-3.237-2.527-4.2-1.277-1.561-4.741-6.672-6.3-7.154-1.249-.454-1.448.085-2.47-.88-1.675-1.5-1.59-2.839-5.48-4.543-1.391-.681-2.129-2.47-3.066-3.464A12.029,12.029,0,0,1,327.836,122.217Z" transform="translate(-226.696 -91.696)"/><path class="b" d="M216.536,191.619c.88.852.88,0,1.136,1.675.284,2.044,2.215.965,3.01-.823,1.136-2.584-1.391-2.243,2.47-6.217.539-.568.4-1.221.823-2.073a4.966,4.966,0,0,0,.852-1.874,19.139,19.139,0,0,1,1.618-4.117c.653-1.476.738-2.953,1.278-4.372.852-2.271,1.647-.738,1.647-4.032-.057-1.788.539-3.8.284-5.053-1.817.483-2.357,4.287-3.89,6.388a50.235,50.235,0,0,0-3.946,6.1,57.721,57.721,0,0,1-3.748,6.3c-2.413,3.691-1.278,3.038-1.391,5.735A12.521,12.521,0,0,0,216.536,191.619Z" transform="translate(-162.553 -120.215)"/><path class="b" d="M367.918,173.96c-.738-1.107-1.334-1.874-2.073-2.924-.795-1.136-1.533-3.378-2.47-5.082-.681-1.363-.823-1.136-1.334-1.221-.284,1.391.312,3.407.256,5.252,0,3.038.937,1.618,1.732,3.975.6,1.647.539,2.9,1.334,4.514,1.363,2.782.738.994,1.562,4a11.712,11.712,0,0,0,.937,1.987c.511,1.249-.085,1.051.852,1.959,3.35,3.236,1.334,3.974,2.356,6.161.653,1.448,2.612,3.038,2.924.539.284-1.448.483-.795,1.136-1.5a10.81,10.81,0,0,0-.114-2.555,21.834,21.834,0,0,0,.114-2.3c-.114-1.42-2.726-5.025-3.606-6.388C370.671,179.127,369.252,175.891,367.918,173.96Z" transform="translate(-250.651 -120.215)"/><path class="b" d="M348.7,92.713c.681,2.47,4.287,2.073,6.9,1.732,2.811-.4,5.764-.114,8.375-.483,2.612-.4,4.685-1.845,7.212-1.817,2.016.057,6.757.795,6.956-1.562-.6-.4-.852-.17-1.391-.539-.539-.256-.483-.511-.937-.937-1.278-.284-2.357-.114-3.691-.4-3.35-.767-6.36.568-10.108,1.391C354.515,91.8,355.537,89.363,348.7,92.713Z" transform="translate(-242.615 -74.032)"/><path class="b" d="M188.57,90.608c.142,2.413,5.366,1.562,7.155,1.562,2.413,0,4.486,1.42,7.041,1.817,2.073.284,4.4-.085,8.546.483,2.555.341,6.1.738,6.7-1.732a13.783,13.783,0,0,0-6.076-1.874c-9.255,0-12.265-3.237-17.461-2.1-1.278.256-2.3.085-3.549.369-.539.454-.341.681-.88.994C189.393,90.466,189.251,90.183,188.57,90.608Z" transform="translate(-145.632 -74.056)"/><path class="b" d="M135.855,106.437a1.955,1.955,0,0,0-.681-2.584c-1.987-1.363-4.8,1.164-5.139,1.363-2.555,1.079-7.1.852-8.574,2.044-.795.71-.852,1.306-1.732,1.874-1.675,1.136-.795.483-1.278,2.243-.114.567-1.476,1.76-.057,2.328,2.328.994,3.208-1.7,4.94-2.072,1.135-.227,2.271.056,3.35-.114,2.016-.369,2.953-1.845,4.628-2.5C132.164,108.651,134.72,108.14,135.855,106.437Z" transform="translate(-102.74 -83.099)"/><path class="b" d="M462.325,112.816a2.7,2.7,0,0,0,2.754.937c1.675-.369.653-1.5.4-1.987-.738-1.306.539-1.391-1.136-2.47-1.221-.795-.795-.795-1.732-1.76-1.562-1.618-5.82-1.221-8.574-2.271-.681-.284-3.151-2.64-5.139-1.618A1.989,1.989,0,0,0,447.818,106c.539,1.533,2.867,2.357,4.287,2.811,1.874.6,2.584,1.959,4.543,2.527C459.458,112.163,459.912,110.431,462.325,112.816Z" transform="translate(-302.586 -83.062)"/><path class="b" d="M136.622,95.91a1.719,1.719,0,0,0,.142-1.817c-.681-1.221-3.293-.369-4.883-.426-2.158-.057-1.476.426-2.754,1.107-.993.511-2.413-.483-3.066.369-.738.937.057.795.937,1.817.88.937,3.208.937,3.747.738.795-.312,1.789-.965,2.612-1.221C134.407,96.109,136.026,96.591,136.622,95.91Z" transform="translate(-107.595 -77.03)"/><path class="b" d="M466.876,97.5c1.136-.312.483-.284,1.079-.852.738-.653.937-.114.88-1.05-.142-1.334-2.158-.4-3.009-.681-1.079-.369-.88-1.192-2.612-1.192-1.675,0-6.558-1.107-5.366,1.874.483,1.107,2.016.568,3.151.852C463.526,97.014,463.015,98.548,466.876,97.5Z" transform="translate(-308.613 -77.084)"/><path class="b" d="M251.826,84.113c-1.334-1.249-7.949-3.89-10.05-4.486a59.565,59.565,0,0,0-13.173-1.59c.738.653,15.785,4.2,17.262,4.6A57.07,57.07,0,0,0,251.826,84.113Z" transform="translate(-169.878 -67.702)"/><path class="b" d="M205.412,102.914c-.483-.057-4.287-1.022-3.691,1.647.4,1.42,1.732.767,3.066,1.022,2.413.4,2.215,2.186,5.962,1.136.681-.17.738-.483,1.136-.823.539-.483.539-.142,1.022-.88-.483-1.675-1.42-.653-2.811-.88-1.278-.142-1.022-1.136-2.555-1.192A13.333,13.333,0,0,1,205.412,102.914Z" transform="translate(-153.559 -82.643)"/><path class="b" d="M381.814,105c.454.71.454.4,1.079.994.6.625.2.539,1.193.767,4.088.909,3.208-.88,6.019-1.249,1.334-.17,2.555.284,2.868-.965.681-2.782-3.407-1.647-3.861-1.618-.681.057-1.278-.028-1.874,0-1.618.057-1.334,1.164-2.754,1.249C383.092,104.264,382.268,103.412,381.814,105Z" transform="translate(-262.674 -82.629)"/><path class="b" d="M324.5,84.1a49.765,49.765,0,0,0,5.82-1.448L347.7,78.023a43.556,43.556,0,0,0-18.312,3.549C327.825,82.282,325.5,83.133,324.5,84.1Z" transform="translate(-227.963 -67.689)"/><path class="b" d="M408.7,175.507c.4.4,3.464,3.407,4.685,2.215,1.334-1.334-4.827-7.24-6.956-6.956C406.347,172.838,407.767,174.456,408.7,175.507Z" transform="translate(-277.582 -123.863)"/><path class="b" d="M194.593,170.766c-2.073-.284-8.29,5.621-6.956,6.956,1.192,1.192,4.287-1.817,4.685-2.215C193.258,174.485,194.734,172.781,194.593,170.766Z" transform="translate(-144.954 -123.863)"/><path class="b" d="M144.519,79.767c-1.079.483-1.136.653-2.413.341-.937-.227-4.77.823-5.082,1.448a1.171,1.171,0,0,0,1.05,1.845c.88-.085,1.278-.568,2.754-.539,1.192,0,2.016.454,2.868-.17.738-.483,2.7-1.789,2.073-2.754C145.371,79.37,144.973,79.6,144.519,79.767Z" transform="translate(-114.272 -68.638)"/><path class="b" d="M452.328,79.847c-.6.6-.341.483,0,.994,1.732,3.151,4.032,1.817,5.877,2.073.88.114,1.817.88,2.5.17,1.931-1.874-2.016-2.328-3.01-2.754-1.817-.738-1.278-.057-2.754-.057C453.662,80.273,453.208,79.023,452.328,79.847Z" transform="translate(-305.165 -68.632)"/><path class="b" d="M133.861,75.8c.142.028-.114.568,1.278-.057.88-.4,2.47-.511,4.2-1.051,1.675-.483,1.618.341,2.9-.625.852-.653,1.675-.6,2.215-1.334-.483-.227-5.309.085-6.5.085a15.575,15.575,0,0,0-3.492.256C133.605,73.389,133.321,75.007,133.861,75.8Z" transform="translate(-112.33 -64.445)"/><path class="b" d="M450.861,72.379c.6.993,1.278.738,2.271,1.476,1.192.965,1.192.2,2.811.625l4.2.994c.085.057.483.227.539.284.88.085.4.028.738-.17a2.155,2.155,0,0,0-.4-2.668c-1.079-.539-5.678-.2-7.1-.284A9.358,9.358,0,0,0,450.861,72.379Z" transform="translate(-304.493 -64.231)"/><path class="b" d="M433.076,113.027c-4.287-2.726-8.29-1.278-6.5.6C428.334,115.469,433.076,116.689,433.076,113.027Z" transform="translate(-289.519 -87.986)"/><path class="b" d="M168.051,112.952c.795,4.684,5.905,1.363,6.558.653,1.533-1.618-1.135-2.3-2.668-2.073A20.347,20.347,0,0,0,168.051,112.952Z" transform="translate(-133.204 -87.968)"/><path class="b" d="M296.64,236.108c2.215,2.073,2.868-.6,3.691-.937.795.341,1.533,3.01,3.663.937-.2-1.022-2.413-3.265-3.663-3.265C299.309,232.843,296.839,234.8,296.64,236.108Z" transform="translate(-211.086 -161.467)"/><path class="b" d="M132.212,132.392a7.178,7.178,0,0,0,3.691,1.136c1.391-.312,3.8-5.423-1.618-3.464C133.092,130.518,131.957,130.8,132.212,132.392Z" transform="translate(-111.476 -98.947)"/><path class="b" d="M466.594,129.583a2.543,2.543,0,0,0,.341,3.265c.795,1.051,2.357.454,3.606,0C473.777,131.883,469.291,129.1,466.594,129.583Z" transform="translate(-313.753 -98.893)"/><path class="b" d="M482.919,87.649c-1.193-.4-1.817-.71-2.754.114.738,1.334,2.754,1.05,4.287,1.76,1.76.738,2.612,1.363,4.77,1.363,1.533,0,1.59-.568,1.647-.71-1.136-.909-1.448-.511-2.726-.823-.937-.227-1.334-.795-2.356-1.05C484.792,87.99,483.912,87.962,482.919,87.649Z" transform="translate(-322.242 -73.284)"/><path class="b" d="M106.24,90.9c2.47,0,2.811-.539,4.883-1.363,1.874-.795,3.691-.4,4.23-1.789-1.022-.88-1.817-.341-2.953,0a28.291,28.291,0,0,0-2.868.653c-1.022.341-1.221.823-2.357,1.022-1.192.2-2.073,0-2.413,1.05A2.738,2.738,0,0,0,106.24,90.9Z" transform="translate(-94.873 -73.3)"/><path class="b" d="M104.62,117.733c0,.993.795,3.435,2.073,2.7l1.931-3.265c.88-1.9.341-3.861-1.136-1.732-.6.88-.4.681-1.476,1.249A3.974,3.974,0,0,0,104.62,117.733Z" transform="translate(-94.786 -89.796)"/><path class="b" d="M204.335,209.166a3.665,3.665,0,0,0,.653-1.334c.341-.852,2.555-2.811,1.562-4.514-1.278-.085-1.42,1.051-2.073,1.562-.823.625-1.42.71-2.158,1.363C202.319,206.383,202.177,209.166,204.335,209.166Z" transform="translate(-153.958 -143.582)"/><path class="b" d="M290.487,254.265a1.46,1.46,0,0,0,1.533-.6c.738-.71,2.868-1.5,3.407-2.839.795-2.186-2.016-.4-2.016-.4C292.418,250.858,288.67,249.978,290.487,254.265Z" transform="translate(-207.063 -171.704)"/><path class="b" d="M311.5,253.721a1.508,1.508,0,0,0,1.476.511,3.661,3.661,0,0,0,.255-2.924c-.88-1.051-2.129-.4-3.35-.965-.454-.256-.852-.681-1.391-.653-.6.085-.681.483-.483,1.107a5.649,5.649,0,0,0,2.215,2.044C311.221,253.323,310.823,253.011,311.5,253.721Z" transform="translate(-217.916 -171.67)"/><path class="b" d="M402.695,206.283a25.054,25.054,0,0,0-2.271-1.59c-.681-.6-.681-1.533-2.016-1.391-.6,2.129,1.221,3.407,1.732,4.77C401.162,210.8,402.95,207.9,402.695,206.283Z" transform="translate(-272.652 -143.567)"/><path class="b" d="M329.028,257.831c.8.568,3.293,1.022,3.549-.965a9.094,9.094,0,0,1,.255-2.357c.426-.88.738-.71.426-1.7-1.959-.625-2.754,2.527-3.549,3.379A1.691,1.691,0,0,0,329.028,257.831Z" transform="translate(-230.698 -173.509)"/><path class="b" d="M276.266,257.274c0-.483-.341-.738-.653-1.079-.937-1.107-1.618-3.946-3.549-3.379-.341.965.2,1.05.454,1.845.539,1.618-.539,3.237,1.476,3.521C274.875,258.382,276.351,258.467,276.266,257.274Z" transform="translate(-196.136 -173.52)"/><path class="b" d="M147.188,144.973c.937-.312,3.152-4.287,2.9-5.48-.4-1.647-1.817.653-2.073.965-1.022.88-1.562.539-2.357,1.7A3.192,3.192,0,0,0,147.188,144.973Z" transform="translate(-119.638 -104.572)"/><path class="b" d="M499.888,120.314a5.727,5.727,0,0,0,.71-2.356c-.852-.937-1.334-.852-2.271-1.533-.738-.653-.738-1.9-1.987-1.448-.539,2.129,1.051,3.322,1.675,4.713C498.412,120.711,499.065,121.308,499.888,120.314Z" transform="translate(-331.972 -90.021)"/><path class="b" d="M457.059,140.33c-.312-.4-1.59-2.527-1.987-.88-.284,1.192,1.987,4.94,2.726,5.48a2.687,2.687,0,0,0,1.675-2.811C458.621,140.9,458,141.239,457.059,140.33Z" transform="translate(-307.029 -104.529)"/><path class="b" d="M430.533,179.054c-1.732-.88-1.278-1.278-3.889-1.079-.312,1.874.539.341,2.214,3.01.88,1.306,1.533,1.448,3.01.426C433.94,179.934,431.612,179.593,430.533,179.054Z" transform="translate(-289.787 -128.205)"/><path class="b" d="M223.42,117.893c-1.731-.965-7.552,1.562-5.678,3.009C219.076,121.953,223.959,119.767,223.42,117.893Z" transform="translate(-163.078 -91.716)"/><path class="b" d="M384.827,120.959c1.931-1.476-3.549-3.662-5.763-3.094C378.808,120.051,383.549,121.981,384.827,120.959Z" transform="translate(-261.002 -91.773)"/><path class="b" d="M176.052,178.021c-1.533-.88-2.924.4-3.946.909-1.05.568-3.208.88-1.391,2.271,2.669,2.1,2.811-.767,4.2-1.7C175.655,179.015,176.052,179.185,176.052,178.021Z" transform="translate(-134.392 -128.081)"/><path class="b" d="M120.387,140.859c1.334-2.073-.4-.142,1.192-1.278,1.476-1.05-2.385-3.634-3.663-2.5-.2.256-.341-.17-.284,1.5C117.718,139.581,117.235,141.143,120.387,140.859Z" transform="translate(-102.66 -103.297)"/><path class="b" d="M487.6,140.007c.341-.653,1.079-4.883-2.612-2.754-.454.284-1.533,1.051-1.391,1.817.114.823.454.341.937.738.4.312.256.483.511.965C486.127,140.887,487.121,140.858,487.6,140.007Z" transform="translate(-324.315 -103.212)"/><path class="b" d="M131.519,144.816c.6,2.726,4.457,2.64,3.463-.426C133.9,141.069,130.98,142.233,131.519,144.816Z" transform="translate(-111.038 -106.658)"/><path class="b" d="M474.68,145.3c.993-2.584-1.874-4.4-3.151-1.363C470.081,147.317,473.885,147.544,474.68,145.3Z" transform="translate(-316.814 -106.66)"/><path class="b" d="M173.307,72.9c.6.993,1.817,1.306,3.151,1.448,1.476.114,3.009-.142,3.605-1.05C179.07,72.165,174.386,71.228,173.307,72.9Z" transform="translate(-136.388 -64.045)"/><path class="b" d="M495.233,76.721c-.256-1.76-4.2-2.867-6.218-2.47C488.873,76.011,493.5,78.027,495.233,76.721Z" transform="translate(-327.6 -65.364)"/><path class="b" d="M107.14,76.691c1.022.909,2.555.426,3.89-.057.994-.369,2.413-1.306,2.328-2.356C111.626,73.938,107.339,75.016,107.14,76.691Z" transform="translate(-96.312 -65.392)"/><path class="b" d="M421.486,73.449c.937,1.562,6.416,1.42,6.7-.567C426.852,71.689,422.423,72.314,421.486,73.449Z" transform="translate(-286.702 -64.194)"/><path class="b" d="M478.653,156.725c.483.738.4.653,1.419,1.022,2.129.738,4.741.511,4.883-1.221C483.536,155.5,479.873,155.76,478.653,156.725Z" transform="translate(-321.326 -114.848)"/><path class="b" d="M117.364,156.6c0,1.079,1.732,1.732,3.01,1.647a6.357,6.357,0,0,0,1.987-.483c.738-.256,1.078-.312,1.22-.994C122.3,155.8,118.613,155.716,117.364,156.6Z" transform="translate(-102.505 -114.917)"/><path class="b" d="M169.253,94.3c-.823-.114-.625-.426-1.562-.114.142.767.227.965.88,1.334,1.533.88,2.357.142,3.89.4.852.142.993.284,1.788,0,.085-1.221-.4-1.249-3.009-1.7C170.189,94.1,170.189,94.467,169.253,94.3Z" transform="translate(-132.986 -77.404)"/><path class="b" d="M434.393,103.955c-.142-1.959-4.685-1.363-5.025-1.391-.993-.17-.539-.539-1.618-.085.483,2.442,3.435,1.476,4.627,1.647C433.314,104.267,433.57,104.523,434.393,103.955Z" transform="translate(-290.496 -82.378)"/><path class="b" d="M142.9,176.575c.426,1.9,4.77,2.271,3.492-.085a3.914,3.914,0,0,0-1.931-1.76C143.238,174.417,142.784,175.525,142.9,176.575Z" transform="translate(-117.959 -126.237)"/><path class="b" d="M167.656,104.155a3.8,3.8,0,0,0,1.874,0c1.136-.17,4.287.795,4.627-1.647-1.078-.454-.795,0-1.731.085C172.142,102.622,167.258,102.026,167.656,104.155Z" transform="translate(-132.951 -82.407)"/><path class="b" d="M346.788,258.547c-1.249,0-1.987.312-2.328,1.334C343.466,263.061,348.463,264.651,346.788,258.547Z" transform="translate(-239.97 -177.036)"/><path class="b" d="M138.446,162.74c.2-2.1-3.01-4.2-3.89-2.924-.511.852.4,2.044,1.022,2.442A3.6,3.6,0,0,0,138.446,162.74Z" transform="translate(-112.827 -117.001)"/><path class="b" d="M260.84,258.754c-1.136,2.442.142,5.2,1.76,3.663C263.793,261.224,263.338,258.271,260.84,258.754Z" transform="translate(-189.141 -177.129)"/><path class="b" d="M467.257,162.826c2.215.483,5.025-1.192,3.634-3.237C469.13,159.362,467.058,161.037,467.257,162.826Z" transform="translate(-314.416 -117.087)"/><path class="b" d="M200.2,228.557c1.334-1.874-3.407-2.555-3.861-.965-.284.88.738,1.931,1.533,2.016A3.114,3.114,0,0,0,200.2,228.557Z" transform="translate(-150.311 -157.749)"/><path class="b" d="M508.028,81.315c.539.852.653.341,1.533.852,1.193.767-.6.284,3.01,2.073.483.256,1.476.511,1.533-.312,0-.738-.852-.653-2.669-2.271C510.754,81.116,508.681,79.952,508.028,81.315Z" transform="translate(-339.118 -69.305)"/><path class="b" d="M427.724,96c.937.312,1.022.085,1.959-.028a9.972,9.972,0,0,1,2.073.085c1.193,0,2.413-.71,2.47-1.789-.6-.227-1.079.114-1.675.17-.88.085-.937-.312-2.073-.085C428.008,94.868,427.61,94.669,427.724,96Z" transform="translate(-290.469 -77.492)"/><path class="b" d="M462.966,174.933c-2.016-.511-4.088,2.271-2.953,3.066A2.181,2.181,0,0,0,462.966,174.933Z" transform="translate(-309.841 -126.355)"/><path class="b" d="M405.214,227.738a2.163,2.163,0,0,0,4.088.568C410.041,226.574,406.094,225.95,405.214,227.738Z" transform="translate(-276.846 -157.726)"/><path class="b" d="M88.619,84.227c.937.511,2.413-.341,3.293-.909.653-.4.653-.795,1.192-1.164.88-.568,1.079.057,1.562-.909-.823-1.391-2.953.057-3.492.539C89.243,83.489,88.505,83.006,88.619,84.227Z" transform="translate(-85.088 -69.293)"/><path class="b" d="M351.012,238.7c3.01,0,2.953-3.237,1.874-3.833-1.079-.539-1.476.681-1.931,1.306C350.132,237.367,350.615,237.566,351.012,238.7Z" transform="translate(-243.711 -162.613)"/><path class="b" d="M228.942,256.215c.341,2.385,3.747,2.129,3.009-.17C230.815,252.666,228.743,254.767,228.942,256.215Z" transform="translate(-170.076 -174.42)"/><path class="b" d="M322.176,242.04c-1.278-.426-4.571,1.533-2.953,2.981C320.3,245.958,323.226,244.538,322.176,242.04Z" transform="translate(-224.499 -167.002)"/><path class="b" d="M256.091,238.7a1.778,1.778,0,0,0,.284-2.527c-.483-.625-.937-1.845-1.931-1.306C253.309,235.465,253.507,238.7,256.091,238.7Z" transform="translate(-185.131 -162.613)"/><path class="b" d="M284.036,243.525c.6,2.158,3.946,2.413,3.35.057C287.045,242.474,283.1,240.458,284.036,243.525Z" transform="translate(-203.366 -166.953)"/><path class="b" d="M378.22,256.5a1.871,1.871,0,0,0-.823-2.3c-.937-.568-1.391.539-1.789,1.192C374.473,257.439,376.943,259.2,378.22,256.5Z" transform="translate(-258.739 -174.309)"/><path class="b" d="M390.26,191.66c-.255.738-.057.88-.142,1.76a7.112,7.112,0,0,1-.312,1.562,1.758,1.758,0,0,0,1.987,1.5c1.079-.17.284-1.789.085-2.726C391.595,192.37,391.339,191.66,390.26,191.66Z" transform="translate(-267.514 -136.524)"/><path class="b" d="M82.02,96.262c-2.072.028-3.066,3.322-1.732,3.833C81.026,100.379,83.837,99.584,82.02,96.262Z" transform="translate(-79.681 -78.745)"/><path class="b" d="M525.4,96.262c-1.732,2.7.738,4.2,1.76,3.833C528.547,99.584,527.411,96.29,525.4,96.262Z" transform="translate(-349.273 -78.745)"/><path class="b" d="M217.824,191.9c-.057-.028-.114-.2-.539-.085-.057,0-.114,0-.114.057-.483.2-.823,1.363-.937,1.845-.284,1.079-1.334,3.833,1.192,2.527,1.533-.738.6-1.448.539-2.754C217.909,192.754,218.108,192.555,217.824,191.9Z" transform="translate(-162.109 -136.596)"/><path class="b" d="M131.4,169.522c-.057,1.618,3.833,3.889,4.429.937C134.81,169.835,133.021,168.443,131.4,169.522Z" transform="translate(-111.007 -122.875)"/><path class="b" d="M447.288,120.683c.71-2.668-1.136-4.145-2.3-1.7a1.685,1.685,0,0,0,.625,2.441C446.408,122.046,447,121.592,447.288,120.683Z" transform="translate(-300.778 -91.752)"/><path class="b" d="M79.853,112.661c.795,1.789,4.542,1.221,4.486-.937A3.333,3.333,0,0,0,79.853,112.661Z" transform="translate(-79.785 -87.791)"/><path class="b" d="M160.443,120.439c.426,2.385,3.237.795,2.5-1.22C162.061,116.805,159.932,117.344,160.443,120.439Z" transform="translate(-128.549 -91.735)"/><path class="b" d="M469.365,170.422c.539,2.668,4.344.937,4.4-.937C472.232,168.349,470.3,169.8,469.365,170.422Z" transform="translate(-315.701 -122.838)"/><path class="b" d="M520.91,111.754c-.142,1.931,3.464,2.9,4.4.937C524.6,111.413,522.187,110.7,520.91,111.754Z" transform="translate(-346.917 -87.82)"/><path class="b" d="M386.706,249.8a1.669,1.669,0,0,0,3.293.341C390.312,248.236,386.593,247.611,386.706,249.8Z" transform="translate(-265.635 -170.898)"/><path class="b" d="M220.114,250.226c.738-2.243-2.868-2.243-3.208-.568A1.634,1.634,0,0,0,220.114,250.226Z" transform="translate(-162.781 -170.929)"/><path class="b" d="M367.369,254.294c-.312-.71-.6-.909-1.533-.965-3.748-.312-1.732,2.754.2,2.924C366.517,255.77,367.312,255.174,367.369,254.294Z" transform="translate(-251.721 -173.861)"/><path class="b" d="M240.216,256.162a2.387,2.387,0,0,0,2.271-2.442c-1.192-.88-3.123-.795-3.663.71A6.119,6.119,0,0,0,240.216,256.162Z" transform="translate(-176.07 -173.77)"/><path class="b" d="M174.128,192.825c-1.079-.71-5.423.028-4.088,1.476C171.119,195.494,174.469,194.755,174.128,192.825Z" transform="translate(-134.256 -137.064)"/><path class="b" d="M435.246,193.781c-.114-.937-.994-1.136-1.987-1.363-1.221-.227-1.675-.312-2.413.4C431.3,194.775,434.2,195.4,435.246,193.781Z" transform="translate(-292.37 -136.885)"/><path class="b" d="M398.881,235.764c1.334-2.754-2.016-2.158-2.669-.795C395.474,236.36,397.8,237.95,398.881,235.764Z" transform="translate(-271.308 -162.06)"/><path class="b" d="M208.266,235.294c.738,2.3,3.066,1.533,2.953.028C211.077,233.789,207.471,232.625,208.266,235.294Z" transform="translate(-157.492 -161.987)"/><path class="b" d="M110.717,149.623a3.483,3.483,0,0,0,1.931,1.05c.823,0,1.76-.568,1.476-1.363C113.726,148.118,109.922,147.749,110.717,149.623Z" transform="translate(-98.413 -110.273)"/><path class="b" d="M495.829,148.819c-1.476-1.107-3.89-.057-3.492,1.079C492.877,151.261,495.886,150.807,495.829,148.819Z" transform="translate(-329.588 -110.292)"/><path class="b" d="M431.871,83.614a1.19,1.19,0,0,0-.511,1.789,2.61,2.61,0,0,0,2.271.539C435.222,85.63,433.688,82.876,431.871,83.614Z" transform="translate(-292.545 -71.008)"/><path class="b" d="M104.26,100.493c.483,1.363,1.817,1.136,2.811.71,1.874-.88,2.612-.028,2.669-1.363-1.334-.767-4,.483-4.06.483A12.1,12.1,0,0,0,104.26,100.493Z" transform="translate(-94.568 -80.761)"/><path class="b" d="M174,83.74c-1.562.568-2.016,2.782.852,2.186C176.864,85.472,175.984,83,174,83.74Z" transform="translate(-136.055 -71.078)"/><path class="b" d="M497.806,100.276c-.2-.057-2.555-1.221-3.89-.454.142.852.085.767,1.079.937,2.129.284,1.675.909,3.208.681.88-.17.937-.2,1.136-.909C498.6,100.219,498.544,100.475,497.806,100.276Z" transform="translate(-330.57 -80.743)"/><path class="b" d="M108,107.767c.539,1.192,2.271.454,2.868.057,2.016-1.334,2.357-.284,2.3-1.76a5.588,5.588,0,0,0-2.9.568c-.738.341-.341.341-1.079.625C108.345,107.6,108.543,107.114,108,107.767Z" transform="translate(-96.836 -84.656)"/><path class="b" d="M494.839,107.239c-.256-.085-2.129-1.533-3.946-1.192,0,.994,0,.823.994,1.107,1.334.369,3.407,2.215,4.145.6C495.492,107.154,495.719,107.523,494.839,107.239Z" transform="translate(-328.739 -84.639)"/><path class="b" d="M357.54,259.483a1.764,1.764,0,0,0,.2,3.35,1.561,1.561,0,0,0,.653-1.7A1.976,1.976,0,0,0,357.54,259.483Z" transform="translate(-247.286 -177.603)"/><path class="b" d="M257.617,249.872a2.457,2.457,0,0,0,3.095,1.363C261.166,249.929,258.838,248.226,257.617,249.872Z" transform="translate(-187.451 -171.37)"/><path class="b" d="M346.446,251.23a2.463,2.463,0,0,0,3.066-1.363c-.341-.4,0-.142-.454-.426A1.761,1.761,0,0,0,346.446,251.23Z" transform="translate(-241.217 -171.366)"/><path class="b" d="M203.33,74.129c.085.2-.2.6,1.533.823a3.847,3.847,0,0,0,2.413-.256C206.822,73.335,204.011,72.8,203.33,74.129Z" transform="translate(-154.572 -64.874)"/><path class="b" d="M251.16,262.833c1.278-.426,2.129-2.754.2-3.35A2.2,2.2,0,0,0,251.16,262.833Z" transform="translate(-183.124 -177.603)"/><path class="b" d="M398.806,74.753c.795.511,3.322.568,3.861-.568-.2-.482-.057-.454-.738-.624a4.337,4.337,0,0,0-1.334-.085A1.766,1.766,0,0,0,398.806,74.753Z" transform="translate(-272.965 -64.93)"/><path class="b" d="M157.035,186.953c.4.653.937,1.959,2.612.965.2-1.107,0-1.363-.539-1.874A2.4,2.4,0,0,0,157.035,186.953Z" transform="translate(-126.532 -133.123)"/><path class="b" d="M448.206,187.908a1.674,1.674,0,0,0,2.584-.965,2.152,2.152,0,0,0-2.073-.909C448.206,186.546,447.979,186.773,448.206,187.908Z" transform="translate(-302.832 -133.113)"/><path class="b" d="M413.893,217.136c-.738,2.129,2.328,3.918,1.931.681C415.228,217.306,414.944,216.937,413.893,217.136Z" transform="translate(-282.033 -151.921)"/><path class="b" d="M193.689,219.639a1.861,1.861,0,0,0,1.136-2.47C192.894,216.856,192.014,218.815,193.689,219.639Z" transform="translate(-148.195 -151.954)"/><path class="b" d="M193.825,207.52c1.051-.426,2.129-2.612.6-2.612A1.367,1.367,0,0,0,193.825,207.52Z" transform="translate(-148.332 -144.548)"/><path class="b" d="M414.856,207.52c1.391-1.05.738-2.612-.625-2.612C412.783,204.908,413.72,207.094,414.856,207.52Z" transform="translate(-281.861 -144.548)"/><path class="b" d="M387.718,130.445c.2.795.539,1.931,1.562,1.448C390.926,131.1,389.734,128.486,387.718,130.445Z" transform="translate(-266.25 -99.016)"/><path class="b" d="M218.9,129.669c-.852.681-.994,1.476,0,2.1.994.653,1.476-.454,1.675-1.363A2.55,2.55,0,0,0,218.9,129.669Z" transform="translate(-163.581 -98.978)"/><path class="b" d="M157.38,132.509c1.192.426,3.123-.312,2.47-1.845A1.985,1.985,0,0,0,157.38,132.509Z" transform="translate(-126.735 -99.547)"/><path class="b" d="M450.618,132.505c.114-.965-.142-.965-.88-1.448a1.636,1.636,0,0,0-1.533-.4C447.41,132.108,449.4,132.931,450.618,132.505Z" transform="translate(-302.774 -99.543)"/><path class="b" d="M401.113,246.446c1.079-.341,1.817-.795,1.817-2.044-1.618-.227-1.874.114-2.612.994C400.517,245.935,400.517,245.964,401.113,246.446Z" transform="translate(-273.881 -168.427)"/><path class="b" d="M207.735,245.371a2.1,2.1,0,0,0-2.555-.994c-.142,1.221.795,1.732,1.732,2.044l.539-.511C207.65,245.541,207.593,245.768,207.735,245.371Z" transform="translate(-155.683 -168.402)"/><path class="b" d="M100.968,130.747c.227.994,2.3,1.647,1.959.028C102.586,129.385,100.655,128.987,100.968,130.747Z" transform="translate(-92.553 -98.921)"/><path class="b" d="M506.215,131.695c1.05.4,2.328-1.107,1.533-1.931C507.01,128.969,505.477,130.5,506.215,131.695Z" transform="translate(-337.901 -98.903)"/><path class="b" d="M512.28,90.192c.653.085,1.448.227,1.59-.426C514.154,88.091,510.321,87.523,512.28,90.192Z" transform="translate(-341.354 -73.953)"/><path class="b" d="M96.367,90.132a1.83,1.83,0,0,0,.539-1.363c-.4-1.221-2.271-.028-2.158.937C94.89,90.36,95.685,90.218,96.367,90.132Z" transform="translate(-88.804 -73.893)"/><path class="b" d="M151.117,172.6c-.142.653,1.448,1.362,2.385,1.05l.142-.681c-.341-.482.057-.227-.539-.539C152.849,172.311,151.316,171.857,151.117,172.6Z" transform="translate(-122.943 -124.727)"/><path class="b" d="M454.586,173.68c.852.256,2.328-.539,2.271-1.107-.2-.738-1.817-.426-2.612.227Z" transform="translate(-306.543 -124.705)"/><path class="b" d="M180.942,79.244s-.483-.085-.057.653a1.629,1.629,0,0,0,2.385.227A1.673,1.673,0,0,0,180.942,79.244Z" transform="translate(-140.871 -68.342)"/><path class="b" d="M213.327,165.176c-.994-.17-3.152.2-2.215,1.249.4.454,1.022.114,1.562-.142C213.27,165.942,213.27,165.971,213.327,165.176Z" transform="translate(-159.145 -120.46)"/><path class="b" d="M424.87,80.126a1.505,1.505,0,0,0,2.413-.426c.085-.852.085-.057-.057-.454C427.028,79.076,425.211,78.763,424.87,80.126Z" transform="translate(-288.751 -68.344)"/><path class="b" d="M397.061,166.552c.4-1.448-.738-1.618-2.215-1.42.085.852.142.795.738,1.051A2.005,2.005,0,0,0,397.061,166.552Z" transform="translate(-270.567 -120.416)"/><path class="b" d="M366.7,264.481c.4.568.681.653,1.476.511.88-.085.994-.341,1.079-1.193C368.171,263.686,367.234,263.714,366.7,264.481Z" transform="translate(-253.517 -180.187)"/><path class="b" d="M241.352,264.443a2.385,2.385,0,0,0-2.527-.681c.057.88.256,1.107,1.051,1.192A1.286,1.286,0,0,0,241.352,264.443Z" transform="translate(-176.07 -180.149)"/><path class="b" d="M232.025,247.528c-2.952-.454-.284,2.442,1.136.738-.2-.483.2-.142-.4-.511A3.67,3.67,0,0,0,232.025,247.528Z" transform="translate(-171.144 -170.332)"/><path class="b" d="M511.052,138.262c-.625,2.073.994,1.476,1.732.625a1.5,1.5,0,0,0-.4-.88C511.592,137.865,511.592,138.007,511.052,138.262Z" transform="translate(-340.864 -103.994)"/><path class="b" d="M426.024,191.93c-1.874-.823-2.016,3.521-.284,1.363C426.535,192.385,426.024,191.987,426.024,191.93Z" transform="translate(-288.543 -136.624)"/><path class="b" d="M404.115,198.414c0-.028-.057.057-.114.085a.9.9,0,0,0,.114.767c.341.511.6.6,1.334.511.681-.085.483-.142.681-.227-.142-.653-.255-.767-.88-1.05-.852-.4-.937-.17-.937-.17C404.257,198.386,404.2,198.471,404.115,198.414Z" transform="translate(-276.088 -140.524)"/><path class="b" d="M98.159,138.305a1.783,1.783,0,0,0-1.334-.256.916.916,0,0,0-.341.88C97.023,139.753,98.613,140.491,98.159,138.305Z" transform="translate(-89.858 -104.037)"/><path class="b" d="M183.291,192.509c.142.738,1.732,2.1,1.675.6C184.966,191.97,183.093,191.033,183.291,192.509Z" transform="translate(-142.426 -136.578)"/><path class="b" d="M375.047,248.288a1.309,1.309,0,0,0,2.385-.71C376.58,247.464,375.444,247.408,375.047,248.288Z" transform="translate(-258.575 -170.354)"/><path class="b" d="M202.682,199.652a1.307,1.307,0,0,0,2.129-.965A1.37,1.37,0,0,0,202.682,199.652Z" transform="translate(-154.179 -140.627)"/><path class="b" d="M515.867,118.215c-.256.568-.483,2.044.88,1.448C517.485,119.351,517.741,118.13,515.867,118.215Z" transform="translate(-343.748 -92.039)"/><path class="b" d="M396.718,84.349c.937.795,2.555.057,2.953-.568A3.09,3.09,0,0,0,396.718,84.349Z" transform="translate(-271.701 -71.091)"/><path class="b" d="M93.715,118.215c-1.817-.085-1.732,1.079-.937,1.448C94.056,120.259,93.914,118.783,93.715,118.215Z" transform="translate(-87.288 -92.038)"/><path class="b" d="M207.794,83.8c.454.625,1.987,1.363,2.924.568-.2-.284.341-.4-1.391-.568C208.646,83.711,208.39,83.512,207.794,83.8Z" transform="translate(-157.275 -71.105)"/><path class="b" d="M505.649,143.421a1.718,1.718,0,0,0,.539-1.533,1.692,1.692,0,0,0-1.76.483A1.512,1.512,0,0,0,505.649,143.421Z" transform="translate(-336.937 -106.342)"/><path class="b" d="M104.766,142.324a1.662,1.662,0,0,0-1.618-.426,1.3,1.3,0,0,0,.539,1.533C104.369,143.261,104.567,143.033,104.766,142.324Z" transform="translate(-93.853 -106.352)"/><path class="b" d="M517.172,103.928c.2.653,0,.681.681.965,1.391.6,1.391-.454.795-.852A2.174,2.174,0,0,0,517.172,103.928Z" transform="translate(-344.656 -83.344)"/><path class="b" d="M90.22,104.853c.653.256,1.533-.028,1.675-.483.312-.738-.085-.511-.085-.511C90.958,103.547,90.277,103.859,90.22,104.853Z" transform="translate(-86.064 -83.276)"/><path class="b" d="M111.979,136.492c-.142-1.022-1.022-1.136-1.959-.539a1.323,1.323,0,0,0,.823.653C111.582,136.918,111.582,136.8,111.979,136.492Z" transform="translate(-98.057 -102.565)"/><path class="b" d="M498.821,136.151c-.6-.852-1.76-.511-1.874.057C496.606,137.429,498.423,136.52,498.821,136.151Z" transform="translate(-332.381 -102.593)"/><path class="b" d="M516.524,129.885c.312.653,0,.511.653,1.05a2.037,2.037,0,0,0,.937.4C518.2,130.055,517.773,129.97,516.524,129.885Z" transform="translate(-344.263 -99.109)"/><path class="b" d="M91.365,131.333a1.843,1.843,0,0,0,1.618-1.448C91.762,129.97,91.308,130.055,91.365,131.333Z" transform="translate(-86.755 -99.109)"/><path class="b" d="M163.933,183.464c0-.568-.483-1.959-1.136-1.334C162.059,182.811,163.252,183.435,163.933,183.464Z" transform="translate(-129.881 -130.656)"/><path class="b" d="M445.965,183.608a1.23,1.23,0,0,0,1.051-.426c.341-.4.341-.17.142-.965C446.164,182.131,446.022,182.784,445.965,183.608Z" transform="translate(-301.528 -130.8)"/><path class="b" d="M384.16,241.245c0-.539.085-1.022-.795-.88C382.371,240.563,382.826,242.068,384.16,241.245Z" transform="translate(-263.288 -166.008)"/><path class="b" d="M225.651,241.327c.823.511,1.675.369,1.136-.767l-.994-.085A.983.983,0,0,0,225.651,241.327Z" transform="translate(-168.062 -166.09)"/><path class="b" d="M403.213,222.025c-.142-1.7-1.193-.6-1.278-.6-.057.256,0,.142,0,.4S402.276,222.592,403.213,222.025Z" transform="translate(-274.845 -154.34)"/><path class="b" d="M252.327,250.427l-.114-.965c-.937-.028-1.079-.028-1.221.738C251.674,250.655,251.476,250.569,252.327,250.427Z" transform="translate(-183.44 -171.528)"/><path class="b" d="M358.973,250.2c-.142-.767-.256-.767-1.278-.738v.965C358.575,250.569,358.32,250.655,358.973,250.2Z" transform="translate(-248.066 -171.528)"/><path class="b" d="M206.714,222.219c.937.567,1.476.284,1.221-.823C207.055,221.4,206.8,221.4,206.714,222.219Z" transform="translate(-156.621 -154.534)"/><path class="b" d="M522.189,125.349c-.539.284-.625.284-.625,1.136l.823.17A1.323,1.323,0,0,0,522.189,125.349Z" transform="translate(-347.316 -96.362)"/><path class="b" d="M89.048,126.485c0-.795-.057-.852-.539-1.136-.256.483-.454.653-.2,1.334Z" transform="translate(-84.835 -96.362)"/></g></g></g></svg>